<?xml version="1.0" encoding="UTF-8" standalone="no"?>
<!-- Generator: Adobe Illustrator 23.0.2, SVG Export Plug-In . SVG Version: 6.00 Build 0)  -->

<svg
   xmlns:dc="http://purl.org/dc/elements/1.1/"
   xmlns:cc="http://creativecommons.org/ns#"
   xmlns:rdf="http://www.w3.org/1999/02/22-rdf-syntax-ns#"
   xmlns:svg="http://www.w3.org/2000/svg"
   xmlns="http://www.w3.org/2000/svg"
   xmlns:sodipodi="http://sodipodi.sourceforge.net/DTD/sodipodi-0.dtd"
   xmlns:inkscape="http://www.inkscape.org/namespaces/inkscape"
   version="1.1"
   id="Ebene_1"
   x="0px"
   y="0px"
   viewBox="0 0 181.39999 43.299999"
   xml:space="preserve"
   sodipodi:docname="eccenca_w.svg"
   width="181.39999"
   height="43.299999"
   inkscape:version="0.92.4 (5da689c313, 2019-01-14)"><metadata
   id="metadata221"><rdf:RDF><cc:Work
       rdf:about=""><dc:format>image/svg+xml</dc:format><dc:type
         rdf:resource="http://purl.org/dc/dcmitype/StillImage" /><dc:title></dc:title></cc:Work></rdf:RDF></metadata><defs
   id="defs219" /><sodipodi:namedview
   pagecolor="#ffffff"
   bordercolor="#666666"
   borderopacity="1"
   objecttolerance="10"
   gridtolerance="10"
   guidetolerance="10"
   inkscape:pageopacity="0"
   inkscape:pageshadow="2"
   inkscape:window-width="1920"
   inkscape:window-height="1025"
   id="namedview217"
   showgrid="false"
   inkscape:zoom="1.18"
   inkscape:cx="29.8"
   inkscape:cy="-62.8"
   inkscape:window-x="1920"
   inkscape:window-y="27"
   inkscape:window-maximized="1"
   inkscape:current-layer="Ebene_1"
   fit-margin-top="0"
   fit-margin-left="0"
   fit-margin-right="0"
   fit-margin-bottom="0" />
<style
   type="text/css"
   id="style2">
	.st0{fill:#7A7D86;}
	.st1{fill:none;}
	.st2{fill:#7A7F86;}
	.st3{fill:#FFFFFF;}
	.st4{fill:#EE7D21;stroke:#EE7D21;stroke-miterlimit:10;}
	.st5{fill:#EE7D21;}
</style>
<g
   id="g138"
   transform="translate(-7.1,-36.8)">
	<g
   id="g6">
		<path
   class="st0"
   d="m 82.9,53.2 h -7.5 c 0,0.9 0.2,1.6 0.5,2.3 0.3,0.7 0.8,1.2 1.4,1.5 0.6,0.3 1.2,0.5 1.9,0.5 0.5,0 0.9,-0.1 1.3,-0.2 0.4,-0.1 0.7,-0.3 1.1,-0.5 0.4,-0.2 0.7,-0.5 1,-0.7 0.3,-0.3 0.7,-0.6 1.2,-1.1 0.2,-0.2 0.5,-0.3 0.8,-0.3 0.4,0 0.7,0.1 1,0.3 0.2,0.2 0.4,0.5 0.4,0.9 0,0.3 -0.1,0.8 -0.4,1.2 -0.3,0.5 -0.7,0.9 -1.2,1.3 -0.5,0.4 -1.2,0.8 -2.1,1.1 -0.8,0.3 -1.8,0.4 -2.8,0.4 -2.4,0 -4.3,-0.7 -5.7,-2.1 -1.4,-1.4 -2,-3.3 -2,-5.7 0,-1.1 0.2,-2.2 0.5,-3.1 0.3,-1 0.8,-1.8 1.5,-2.5 0.6,-0.7 1.4,-1.2 2.4,-1.6 0.9,-0.4 2,-0.5 3.1,-0.5 1.5,0 2.8,0.3 3.8,0.9 1.1,0.6 1.9,1.4 2.4,2.4 0.5,1 0.8,2 0.8,3.1 0,1 -0.3,1.6 -0.8,1.9 -0.8,0.3 -1.6,0.5 -2.6,0.5 M 75.5,51 h 6.9 c -0.1,-1.3 -0.4,-2.3 -1.1,-2.9 -0.6,-0.7 -1.4,-1 -2.4,-1 -1,0 -1.7,0.3 -2.3,1 -0.6,0.6 -1,1.6 -1.1,2.9"
   id="path4"
   inkscape:connector-curvature="0"
   style="fill:#7a7d86" />
	</g>
	<g
   id="g10">
		<path
   class="st0"
   d="m 103,55.3 c 0,0.5 -0.1,1 -0.4,1.5 -0.3,0.5 -0.7,1.1 -1.3,1.5 -0.6,0.5 -1.3,0.9 -2.2,1.2 -0.9,0.3 -1.9,0.4 -3,0.4 -2.3,0 -4.2,-0.7 -5.5,-2.1 -1.3,-1.4 -2,-3.2 -2,-5.5 0,-1.6 0.3,-3 0.9,-4.2 0.6,-1.2 1.5,-2.1 2.6,-2.8 1.2,-0.7 2.5,-1 4.1,-1 1,0 1.9,0.1 2.7,0.4 0.8,0.3 1.5,0.7 2.1,1.1 0.6,0.5 1,0.9 1.3,1.5 0.3,0.5 0.5,1 0.5,1.5 0,0.5 -0.2,0.8 -0.5,1.2 -0.3,0.3 -0.7,0.5 -1.2,0.5 -0.3,0 -0.6,-0.1 -0.8,-0.2 -0.2,-0.2 -0.4,-0.4 -0.7,-0.8 -0.5,-0.7 -1,-1.2 -1.5,-1.6 -0.5,-0.3 -1.2,-0.5 -1.9,-0.5 -1.1,0 -2,0.5 -2.7,1.3 -0.7,0.9 -1,2.1 -1,3.6 0,0.7 0.1,1.4 0.3,2 0.2,0.6 0.4,1.1 0.8,1.5 0.3,0.4 0.7,0.7 1.2,1 0.5,0.2 1,0.3 1.6,0.3 0.8,0 1.4,-0.2 2,-0.5 0.5,-0.3 1,-0.9 1.5,-1.6 0.2,-0.4 0.5,-0.8 0.8,-1 0.3,-0.2 0.6,-0.4 1,-0.4 0.5,0 0.9,0.2 1.2,0.5 -0.1,0.4 0.1,0.8 0.1,1.2"
   id="path8"
   inkscape:connector-curvature="0"
   style="fill:#7a7d86" />
	</g>
	<g
   id="g14">
		<path
   class="st0"
   d="m 120,55.3 c 0,0.5 -0.1,1 -0.4,1.5 -0.3,0.5 -0.7,1.1 -1.3,1.5 -0.6,0.5 -1.3,0.9 -2.2,1.2 -0.9,0.3 -1.9,0.4 -3,0.4 -2.4,0 -4.2,-0.7 -5.5,-2.1 -1.3,-1.4 -2,-3.2 -2,-5.5 0,-1.6 0.3,-3 0.9,-4.2 0.6,-1.2 1.5,-2.1 2.6,-2.8 1.1,-0.7 2.5,-1 4.1,-1 1,0 1.9,0.1 2.7,0.4 0.8,0.3 1.5,0.7 2.1,1.1 0.6,0.5 1,0.9 1.3,1.5 0.3,0.5 0.5,1 0.5,1.5 0,0.5 -0.2,0.8 -0.5,1.2 -0.3,0.3 -0.8,0.5 -1.2,0.5 -0.3,0 -0.6,-0.1 -0.8,-0.2 -0.2,-0.2 -0.5,-0.4 -0.7,-0.8 -0.5,-0.7 -1,-1.2 -1.5,-1.6 -0.5,-0.3 -1.2,-0.5 -1.9,-0.5 -1.1,0 -2,0.5 -2.7,1.3 -0.7,0.9 -1,2.1 -1,3.6 0,0.7 0.1,1.4 0.3,2 0.2,0.6 0.4,1.1 0.8,1.5 0.3,0.4 0.7,0.7 1.2,1 0.5,0.2 1,0.3 1.6,0.3 0.8,0 1.4,-0.2 2,-0.5 0.5,-0.3 1,-0.9 1.4,-1.6 0.2,-0.4 0.5,-0.8 0.8,-1 0.3,-0.2 0.6,-0.4 1,-0.4 0.5,0 0.9,0.2 1.2,0.5 0,0.4 0.2,0.8 0.2,1.2"
   id="path12"
   inkscape:connector-curvature="0"
   style="fill:#7a7d86" />
	</g>
	<g
   id="g18">
		<path
   class="st0"
   d="m 134,53.2 h -7.5 c 0,0.9 0.2,1.6 0.5,2.3 0.3,0.7 0.8,1.2 1.4,1.5 0.6,0.3 1.2,0.5 1.9,0.5 0.5,0 0.9,-0.1 1.3,-0.2 0.4,-0.1 0.7,-0.3 1.1,-0.5 0.4,-0.2 0.7,-0.5 1,-0.7 0.3,-0.3 0.7,-0.6 1.2,-1.1 0.2,-0.2 0.5,-0.3 0.8,-0.3 0.4,0 0.7,0.1 0.9,0.3 0.2,0.2 0.4,0.5 0.4,0.9 0,0.3 -0.1,0.8 -0.4,1.2 -0.3,0.5 -0.7,0.9 -1.2,1.3 -0.6,0.4 -1.2,0.8 -2.1,1.1 -0.8,0.3 -1.8,0.4 -2.8,0.4 -2.4,0 -4.3,-0.7 -5.7,-2.1 -1.4,-1.4 -2,-3.3 -2,-5.7 0,-1.1 0.2,-2.2 0.5,-3.1 0.3,-1 0.8,-1.8 1.5,-2.5 0.6,-0.7 1.4,-1.2 2.4,-1.6 0.9,-0.4 2,-0.5 3.1,-0.5 1.5,0 2.8,0.3 3.8,0.9 1.1,0.6 1.9,1.4 2.4,2.4 0.5,1 0.8,2 0.8,3.1 0,1 -0.3,1.6 -0.8,1.9 -0.8,0.3 -1.5,0.5 -2.5,0.5 M 126.5,51 h 6.9 c -0.1,-1.3 -0.4,-2.3 -1.1,-2.9 -0.6,-0.7 -1.4,-1 -2.4,-1 -0.9,0 -1.7,0.3 -2.3,1 -0.6,0.6 -1,1.6 -1.1,2.9"
   id="path16"
   inkscape:connector-curvature="0"
   style="fill:#7a7d86" />
	</g>
	<g
   id="g22">
		<path
   class="st0"
   d="M 143.8,46.6 V 47 c 0.7,-0.9 1.4,-1.5 2.2,-2 0.8,-0.4 1.7,-0.6 2.7,-0.6 1,0 1.9,0.2 2.7,0.7 0.8,0.4 1.4,1.1 1.8,1.9 0.3,0.5 0.4,1 0.5,1.5 0.1,0.5 0.1,1.2 0.1,2.1 v 7.1 c 0,0.8 -0.2,1.3 -0.5,1.7 -0.4,0.4 -0.8,0.6 -1.4,0.6 -0.6,0 -1,-0.2 -1.4,-0.6 -0.4,-0.4 -0.5,-1 -0.5,-1.7 v -6.4 c 0,-1.3 -0.2,-2.2 -0.5,-2.9 -0.3,-0.7 -1,-1 -2.1,-1 -0.7,0 -1.3,0.2 -1.8,0.6 -0.6,0.4 -1,1 -1.2,1.7 -0.2,0.6 -0.3,1.6 -0.3,3.2 v 4.8 c 0,0.8 -0.2,1.4 -0.5,1.7 -0.4,0.4 -0.8,0.6 -1.4,0.6 -0.6,0 -1,-0.2 -1.4,-0.6 -0.4,-0.4 -0.5,-1 -0.5,-1.7 v -11 c 0,-0.7 0.2,-1.3 0.5,-1.6 0.3,-0.4 0.8,-0.5 1.3,-0.5 0.3,0 0.6,0.1 0.9,0.2 0.3,0.2 0.5,0.4 0.7,0.7 0,0.2 0.1,0.6 0.1,1.1"
   id="path20"
   inkscape:connector-curvature="0"
   style="fill:#7a7d86" />
	</g>
	<g
   id="g26">
		<path
   class="st0"
   d="m 171.3,55.3 c 0,0.5 -0.1,1 -0.4,1.5 -0.3,0.5 -0.7,1.1 -1.3,1.5 -0.6,0.5 -1.3,0.9 -2.2,1.2 -0.9,0.3 -1.9,0.4 -3,0.4 -2.3,0 -4.2,-0.7 -5.5,-2.1 -1.3,-1.4 -2,-3.2 -2,-5.5 0,-1.6 0.3,-3 0.9,-4.2 0.6,-1.2 1.5,-2.1 2.6,-2.8 1.2,-0.7 2.5,-1 4.1,-1 1,0 1.9,0.1 2.7,0.4 0.8,0.3 1.5,0.7 2.1,1.1 0.6,0.5 1,0.9 1.3,1.5 0.3,0.5 0.4,1 0.4,1.5 0,0.5 -0.2,0.8 -0.5,1.2 -0.3,0.3 -0.8,0.5 -1.2,0.5 -0.3,0 -0.6,-0.1 -0.8,-0.2 -0.2,-0.2 -0.4,-0.4 -0.7,-0.8 -0.5,-0.7 -0.9,-1.2 -1.5,-1.6 -0.5,-0.3 -1.2,-0.5 -1.9,-0.5 -1.1,0 -2,0.5 -2.7,1.3 -0.7,0.9 -1,2.1 -1,3.6 0,0.7 0.1,1.4 0.3,2 0.2,0.6 0.4,1.1 0.8,1.5 0.3,0.4 0.7,0.7 1.2,1 0.5,0.2 1,0.3 1.6,0.3 0.8,0 1.4,-0.2 2,-0.5 0.5,-0.3 1,-0.9 1.4,-1.6 0.2,-0.4 0.5,-0.8 0.8,-1 0.3,-0.2 0.6,-0.4 1,-0.4 0.5,0 0.9,0.2 1.2,0.5 0.1,0.4 0.3,0.8 0.3,1.2"
   id="path24"
   inkscape:connector-curvature="0"
   style="fill:#7a7d86" />
	</g>
	<g
   id="g30">
		<path
   class="st0"
   d="m 184.2,57.8 c -0.9,0.7 -1.8,1.3 -2.7,1.6 -0.9,0.4 -1.8,0.5 -2.9,0.5 -1,0 -1.8,-0.2 -2.6,-0.6 -0.7,-0.4 -1.3,-0.9 -1.7,-1.6 -0.4,-0.7 -0.6,-1.4 -0.6,-2.2 0,-1 0.3,-1.9 1,-2.7 0.7,-0.7 1.6,-1.2 2.7,-1.5 0.2,-0.1 0.8,-0.2 1.8,-0.4 1,-0.2 1.8,-0.4 2.5,-0.5 0.7,-0.2 1.4,-0.4 2.2,-0.6 0,-1 -0.2,-1.7 -0.6,-2.2 -0.4,-0.5 -1.1,-0.7 -2.2,-0.7 -1,0 -1.7,0.1 -2.2,0.4 -0.5,0.3 -0.9,0.7 -1.3,1.2 -0.3,0.5 -0.6,0.9 -0.7,1.1 -0.1,0.2 -0.5,0.3 -0.9,0.3 -0.4,0 -0.8,-0.1 -1.1,-0.4 -0.3,-0.3 -0.5,-0.6 -0.5,-1.1 0,-0.7 0.2,-1.3 0.7,-2 0.5,-0.6 1.2,-1.2 2.2,-1.6 1,-0.4 2.3,-0.6 3.8,-0.6 1.7,0 3,0.2 4,0.6 0.9,0.4 1.6,1 2,1.9 0.4,0.9 0.6,2 0.6,3.4 0,0.9 0,1.7 0,2.3 0,0.6 0,1.3 0,2.1 0,0.7 0.1,1.5 0.4,2.2 0.2,0.8 0.4,1.3 0.4,1.5 0,0.4 -0.2,0.8 -0.5,1.1 -0.4,0.3 -0.8,0.5 -1.2,0.5 -0.4,0 -0.8,-0.2 -1.2,-0.5 -0.5,-0.2 -0.9,-0.8 -1.4,-1.5 M 184,52.3 c -0.6,0.2 -1.4,0.4 -2.4,0.7 -1.1,0.2 -1.8,0.4 -2.2,0.5 -0.4,0.1 -0.8,0.3 -1.2,0.6 -0.4,0.3 -0.5,0.8 -0.5,1.3 0,0.6 0.2,1.1 0.7,1.5 0.4,0.4 1,0.6 1.7,0.6 0.8,0 1.5,-0.2 2.1,-0.5 0.6,-0.3 1.1,-0.8 1.4,-1.3 0.4,-0.6 0.5,-1.5 0.5,-2.9 v -0.5 z"
   id="path28"
   inkscape:connector-curvature="0"
   style="fill:#7a7d86" />
	</g>
	<g
   id="g34">
		<path
   class="st0"
   d="m 78,71.3 c 0,0.2 -0.1,0.4 -0.2,0.6 -0.1,0.2 -0.3,0.4 -0.5,0.6 -0.2,0.2 -0.5,0.4 -0.9,0.5 -0.4,0.1 -0.8,0.2 -1.2,0.2 -1,0 -1.7,-0.3 -2.3,-0.9 -0.5,-0.6 -0.8,-1.3 -0.8,-2.3 0,-0.7 0.1,-1.2 0.4,-1.7 0.2,-0.5 0.6,-0.9 1.1,-1.2 0.5,-0.3 1,-0.4 1.7,-0.4 0.4,0 0.8,0.1 1.1,0.2 0.3,0.1 0.6,0.3 0.9,0.5 0.2,0.2 0.4,0.4 0.5,0.6 0.1,0.2 0.2,0.4 0.2,0.6 0,0.2 -0.1,0.4 -0.2,0.5 -0.1,0.1 -0.3,0.2 -0.5,0.2 -0.1,0 -0.2,0 -0.3,-0.1 C 76.9,69.1 76.8,69 76.7,68.9 76.5,68.6 76.3,68.4 76.1,68.2 75.9,68.1 75.6,68 75.3,68 c -0.5,0 -0.8,0.2 -1.1,0.5 -0.3,0.4 -0.4,0.9 -0.4,1.5 0,0.3 0,0.6 0.1,0.8 0.1,0.2 0.2,0.4 0.3,0.6 0.1,0.2 0.3,0.3 0.5,0.4 0.1,0.2 0.3,0.2 0.5,0.2 0.3,0 0.6,-0.1 0.8,-0.2 0.2,-0.1 0.4,-0.4 0.6,-0.7 0.1,-0.2 0.2,-0.3 0.3,-0.4 0.1,-0.1 0.2,-0.2 0.4,-0.2 0.2,0 0.3,0.1 0.5,0.2 0.2,0.3 0.2,0.4 0.2,0.6"
   id="path32"
   inkscape:connector-curvature="0"
   style="fill:#7a7d86" />
	</g>
	<g
   id="g38">
		<path
   class="st0"
   d="m 85.3,70 c 0,0.5 -0.1,0.9 -0.2,1.3 -0.2,0.4 -0.4,0.7 -0.6,1 -0.3,0.3 -0.6,0.5 -1,0.7 -0.4,0.2 -0.8,0.2 -1.3,0.2 -0.5,0 -0.9,-0.1 -1.3,-0.2 -0.4,-0.2 -0.7,-0.4 -1,-0.7 C 79.6,72 79.4,71.7 79.3,71.3 79.1,70.9 79,70.5 79,70 c 0,-0.5 0.1,-0.9 0.2,-1.3 0.1,-0.4 0.4,-0.7 0.6,-1 0.3,-0.3 0.6,-0.5 1,-0.7 0.4,-0.1 0.8,-0.2 1.3,-0.2 0.5,0 0.9,0.1 1.3,0.2 0.4,0.2 0.7,0.4 1,0.7 0.3,0.3 0.5,0.6 0.6,1 0.2,0.4 0.3,0.9 0.3,1.3 m -1.6,0 c 0,-0.6 -0.1,-1.1 -0.4,-1.5 C 83,68.2 82.6,68 82.1,68 c -0.3,0 -0.6,0.1 -0.8,0.2 -0.2,0.2 -0.4,0.4 -0.5,0.7 -0.1,0.3 -0.2,0.7 -0.2,1.1 0,0.4 0.1,0.8 0.2,1.1 0.1,0.3 0.3,0.5 0.5,0.7 0.2,0.2 0.5,0.3 0.8,0.3 0.5,0 0.9,-0.2 1.1,-0.5 0.4,-0.4 0.5,-0.9 0.5,-1.6"
   id="path36"
   inkscape:connector-curvature="0"
   style="fill:#7a7d86" />
	</g>
	<g
   id="g42">
		<path
   class="st0"
   d="m 91.7,70.1 v 2.1 c 0,0.3 -0.1,0.6 -0.2,0.7 -0.2,0.2 -0.3,0.2 -0.6,0.2 -0.2,0 -0.4,-0.1 -0.6,-0.2 -0.1,-0.2 -0.2,-0.4 -0.2,-0.7 v -2.5 c 0,-0.4 0,-0.7 0,-0.9 0,-0.2 -0.1,-0.4 -0.2,-0.5 -0.1,-0.1 -0.3,-0.2 -0.6,-0.2 -0.5,0 -0.9,0.2 -1,0.5 -0.2,0.4 -0.2,0.9 -0.2,1.5 v 2.1 c 0,0.3 -0.1,0.6 -0.2,0.7 -0.2,0.2 -0.3,0.3 -0.6,0.3 -0.2,0 -0.4,-0.1 -0.6,-0.3 -0.2,-0.2 -0.2,-0.4 -0.2,-0.7 v -4.5 c 0,-0.3 0.1,-0.5 0.2,-0.7 0.1,-0.1 0.3,-0.2 0.5,-0.2 0.2,0 0.4,0.1 0.5,0.2 0.1,0.1 0.2,0.3 0.2,0.6 v 0.2 c 0.3,-0.3 0.6,-0.6 0.9,-0.7 0.3,-0.2 0.7,-0.2 1,-0.2 0.4,0 0.7,0.1 1,0.2 0.3,0.2 0.5,0.4 0.7,0.7 0.3,-0.3 0.5,-0.6 0.9,-0.7 0.3,-0.1 0.6,-0.2 1,-0.2 0.4,0 0.8,0.1 1.1,0.3 0.3,0.2 0.5,0.4 0.7,0.7 0.1,0.3 0.2,0.7 0.2,1.4 v 3.1 c 0,0.3 -0.1,0.6 -0.2,0.7 -0.2,0.2 -0.3,0.2 -0.6,0.2 -0.2,0 -0.4,-0.1 -0.6,-0.3 -0.2,-0.2 -0.2,-0.4 -0.2,-0.7 v -2.7 c 0,-0.3 0,-0.6 0,-0.8 0,-0.2 -0.1,-0.4 -0.2,-0.5 -0.1,-0.1 -0.3,-0.2 -0.6,-0.2 -0.2,0 -0.4,0.1 -0.6,0.2 -0.2,0.1 -0.3,0.3 -0.4,0.5 -0.2,0.2 -0.3,0.7 -0.3,1.3"
   id="path40"
   inkscape:connector-curvature="0"
   style="fill:#7a7d86" />
	</g>
	<g
   id="g46">
		<path
   class="st0"
   d="m 102.1,70.1 v 2.1 c 0,0.3 -0.1,0.6 -0.2,0.7 -0.2,0.2 -0.4,0.2 -0.6,0.2 -0.2,0 -0.4,-0.1 -0.6,-0.2 -0.2,-0.2 -0.2,-0.4 -0.2,-0.7 v -2.5 c 0,-0.4 0,-0.7 0,-0.9 0,-0.2 -0.1,-0.4 -0.2,-0.5 -0.1,-0.1 -0.3,-0.2 -0.6,-0.2 -0.5,0 -0.9,0.2 -1,0.5 -0.2,0.4 -0.2,0.9 -0.2,1.5 v 2.1 c 0,0.3 -0.1,0.6 -0.2,0.7 -0.1,0.2 -0.3,0.3 -0.6,0.3 -0.2,0 -0.4,-0.1 -0.6,-0.3 -0.1,-0.2 -0.2,-0.4 -0.2,-0.7 v -4.5 c 0,-0.3 0.1,-0.5 0.2,-0.7 0.1,-0.1 0.3,-0.2 0.5,-0.2 0.2,0 0.4,0.1 0.5,0.2 0.1,0.1 0.2,0.3 0.2,0.6 v 0.2 c 0.3,-0.3 0.6,-0.6 0.9,-0.7 0.3,-0.2 0.7,-0.2 1,-0.2 0.4,0 0.7,0.1 1,0.2 0.3,0.2 0.5,0.4 0.7,0.7 0.3,-0.3 0.5,-0.6 0.8,-0.7 0.3,-0.1 0.6,-0.2 1,-0.2 0.4,0 0.8,0.1 1.1,0.3 0.3,0.2 0.5,0.4 0.7,0.7 0.1,0.3 0.2,0.7 0.2,1.4 v 3.1 c 0,0.3 -0.1,0.6 -0.2,0.7 -0.2,0.2 -0.3,0.2 -0.6,0.2 -0.2,0 -0.4,-0.1 -0.6,-0.3 -0.2,-0.2 -0.2,-0.4 -0.2,-0.7 v -2.7 c 0,-0.3 0,-0.6 0,-0.8 0,-0.2 -0.1,-0.4 -0.2,-0.5 -0.1,-0.1 -0.3,-0.2 -0.6,-0.2 -0.2,0 -0.4,0.1 -0.6,0.2 -0.2,0.1 -0.3,0.3 -0.4,0.5 -0.1,0.2 -0.2,0.7 -0.2,1.3"
   id="path44"
   inkscape:connector-curvature="0"
   style="fill:#7a7d86" />
	</g>
	<g
   id="g50">
		<path
   class="st0"
   d="m 111.3,72.3 c -0.4,0.3 -0.7,0.5 -1.1,0.7 -0.4,0.1 -0.8,0.2 -1.2,0.2 -0.4,0 -0.8,-0.1 -1.1,-0.2 -0.3,-0.2 -0.5,-0.4 -0.7,-0.6 -0.2,-0.3 -0.3,-0.6 -0.3,-0.9 0,-0.4 0.1,-0.8 0.4,-1.1 0.3,-0.3 0.7,-0.5 1.1,-0.6 0.1,0 0.4,-0.1 0.7,-0.2 0.4,-0.1 0.7,-0.2 1,-0.2 0.3,-0.1 0.6,-0.1 0.9,-0.2 0,-0.4 -0.1,-0.7 -0.2,-0.9 -0.1,-0.2 -0.4,-0.3 -0.9,-0.3 -0.4,0 -0.7,0.1 -0.9,0.2 -0.2,0.1 -0.4,0.3 -0.5,0.5 -0.1,0.2 -0.2,0.4 -0.3,0.4 -0.1,0.1 -0.2,0.1 -0.4,0.1 -0.2,0 -0.3,-0.1 -0.5,-0.2 -0.1,-0.1 -0.2,-0.3 -0.2,-0.4 0,-0.3 0.1,-0.5 0.3,-0.8 0.2,-0.3 0.5,-0.5 0.9,-0.6 0.4,-0.2 0.9,-0.3 1.5,-0.3 0.7,0 1.2,0.1 1.6,0.2 0.4,0.2 0.7,0.4 0.8,0.8 0.2,0.3 0.2,0.8 0.2,1.4 0,0.4 0,0.7 0,0.9 0,0.3 0,0.5 0,0.9 0,0.3 0.1,0.6 0.2,0.9 0.1,0.3 0.1,0.5 0.1,0.6 0,0.2 -0.1,0.3 -0.2,0.4 -0.2,0.1 -0.3,0.2 -0.5,0.2 -0.2,0 -0.3,-0.1 -0.5,-0.2 0.2,-0.1 0,-0.4 -0.2,-0.7 m -0.1,-2.2 c -0.2,0.1 -0.6,0.2 -1,0.3 -0.4,0.1 -0.7,0.2 -0.9,0.2 -0.2,0 -0.3,0.1 -0.5,0.3 -0.2,0.1 -0.2,0.3 -0.2,0.5 0,0.2 0.1,0.4 0.3,0.6 0.2,0.2 0.4,0.3 0.7,0.3 0.3,0 0.6,-0.1 0.9,-0.2 0.3,-0.1 0.5,-0.3 0.6,-0.5 0.1,-0.2 0.2,-0.6 0.2,-1.2 v -0.3 z"
   id="path48"
   inkscape:connector-curvature="0"
   style="fill:#7a7d86" />
	</g>
	<g
   id="g54">
		<path
   class="st0"
   d="m 115.8,67.7 v 0.2 c 0.3,-0.4 0.6,-0.6 0.9,-0.8 0.3,-0.2 0.7,-0.3 1.1,-0.3 0.4,0 0.8,0.1 1.1,0.3 0.3,0.2 0.6,0.4 0.7,0.8 0.1,0.2 0.2,0.4 0.2,0.6 0,0.2 0,0.5 0,0.8 v 2.9 c 0,0.3 -0.1,0.6 -0.2,0.7 -0.1,0.2 -0.3,0.2 -0.6,0.2 -0.2,0 -0.4,-0.1 -0.6,-0.2 -0.1,-0.2 -0.2,-0.4 -0.2,-0.7 v -2.6 c 0,-0.5 -0.1,-0.9 -0.2,-1.2 -0.1,-0.3 -0.4,-0.4 -0.9,-0.4 -0.3,0 -0.5,0.1 -0.8,0.3 -0.2,0.2 -0.4,0.4 -0.5,0.7 -0.1,0.2 -0.1,0.7 -0.1,1.3 v 2 c 0,0.3 -0.1,0.6 -0.2,0.7 -0.1,0.2 -0.3,0.2 -0.6,0.2 -0.2,0 -0.4,-0.1 -0.6,-0.2 -0.1,-0.2 -0.2,-0.4 -0.2,-0.7 v -4.6 c 0,-0.3 0.1,-0.5 0.2,-0.7 0.1,-0.1 0.3,-0.2 0.5,-0.2 0.1,0 0.3,0 0.4,0.1 0.1,0.1 0.2,0.2 0.3,0.3 0.2,0.2 0.3,0.3 0.3,0.5"
   id="path52"
   inkscape:connector-curvature="0"
   style="fill:#7a7d86" />
	</g>
	<g
   id="g58">
		<path
   class="st0"
   d="m 125.8,72.3 v -0.2 c -0.2,0.2 -0.4,0.4 -0.6,0.6 -0.2,0.2 -0.4,0.3 -0.7,0.3 -0.2,0.1 -0.5,0.1 -0.8,0.1 -0.4,0 -0.7,-0.1 -1,-0.2 -0.3,-0.2 -0.6,-0.4 -0.8,-0.7 -0.2,-0.3 -0.4,-0.6 -0.5,-1 -0.1,-0.4 -0.2,-0.8 -0.2,-1.3 0,-1 0.2,-1.7 0.7,-2.3 0.5,-0.5 1.1,-0.8 1.9,-0.8 0.5,0 0.8,0.1 1.1,0.2 0.3,0.2 0.6,0.4 0.9,0.7 v -2.3 c 0,-0.3 0.1,-0.6 0.2,-0.7 0.1,-0.2 0.3,-0.3 0.5,-0.3 0.2,0 0.4,0.1 0.6,0.2 0.1,0.2 0.2,0.4 0.2,0.7 v 6.9 c 0,0.3 -0.1,0.5 -0.2,0.7 -0.1,0.2 -0.3,0.2 -0.5,0.2 -0.2,0 -0.4,-0.1 -0.5,-0.2 -0.3,-0.1 -0.3,-0.3 -0.3,-0.6 M 122.7,70 c 0,0.4 0.1,0.8 0.2,1.1 0.1,0.3 0.3,0.5 0.5,0.7 0.2,0.2 0.5,0.2 0.8,0.2 0.3,0 0.5,-0.1 0.8,-0.2 0.2,-0.1 0.4,-0.4 0.5,-0.7 0.1,-0.3 0.2,-0.7 0.2,-1.1 0,-0.4 -0.1,-0.8 -0.2,-1.1 -0.1,-0.3 -0.3,-0.5 -0.6,-0.7 -0.2,-0.2 -0.5,-0.2 -0.8,-0.2 -0.3,0 -0.6,0.1 -0.8,0.2 -0.2,0.2 -0.4,0.4 -0.5,0.7 -0.1,0.4 -0.1,0.7 -0.1,1.1"
   id="path56"
   inkscape:connector-curvature="0"
   style="fill:#7a7d86" />
	</g>
	<g
   id="g62">
		<path
   class="st0"
   d="m 133.2,73.4 0.1,-0.4 -1.9,-4.9 c -0.1,-0.3 -0.2,-0.5 -0.2,-0.6 0,-0.1 0,-0.3 0.1,-0.4 0.1,-0.1 0.2,-0.2 0.3,-0.3 0.1,-0.1 0.2,-0.1 0.4,-0.1 0.2,0 0.4,0.1 0.5,0.2 0.1,0.1 0.2,0.4 0.3,0.6 l 1.3,3.9 1.3,-3.6 c 0.1,-0.3 0.2,-0.5 0.3,-0.7 0.1,-0.2 0.2,-0.3 0.3,-0.3 0.1,-0.1 0.2,-0.1 0.4,-0.1 0.1,0 0.2,0 0.3,0.1 0.1,0.1 0.2,0.1 0.2,0.3 0.1,0.1 0.1,0.2 0.1,0.3 0,0.1 -0.1,0.2 -0.1,0.3 0,0.1 -0.1,0.3 -0.1,0.4 l -2,5.4 c -0.2,0.5 -0.4,0.9 -0.5,1.1 -0.2,0.3 -0.4,0.5 -0.7,0.6 -0.3,0.1 -0.6,0.2 -1.1,0.2 -0.5,0 -0.8,0 -1,-0.2 -0.2,-0.1 -0.3,-0.3 -0.3,-0.5 0,-0.2 0.1,-0.3 0.2,-0.4 0.1,-0.1 0.3,-0.1 0.5,-0.1 0.1,0 0.2,0 0.3,0 0.1,0 0.2,0 0.3,0 0.2,0 0.3,0 0.4,-0.1 0.1,-0.1 0.2,-0.2 0.3,-0.3 -0.2,0.1 -0.1,-0.1 0,-0.4"
   id="path60"
   inkscape:connector-curvature="0"
   style="fill:#7a7d86" />
	</g>
	<g
   id="g66">
		<path
   class="st0"
   d="m 143.9,70 c 0,0.5 -0.1,0.9 -0.2,1.3 -0.1,0.4 -0.4,0.7 -0.6,1 -0.3,0.3 -0.6,0.5 -1,0.7 -0.4,0.2 -0.8,0.2 -1.3,0.2 -0.5,0 -0.9,-0.1 -1.3,-0.2 -0.4,-0.2 -0.7,-0.4 -1,-0.7 -0.3,-0.3 -0.5,-0.6 -0.6,-1 -0.1,-0.4 -0.2,-0.8 -0.2,-1.3 0,-0.5 0.1,-0.9 0.2,-1.3 0.1,-0.4 0.4,-0.7 0.6,-1 0.3,-0.3 0.6,-0.5 1,-0.7 0.4,-0.1 0.8,-0.2 1.3,-0.2 0.5,0 0.9,0.1 1.3,0.2 0.4,0.2 0.7,0.4 1,0.7 0.3,0.3 0.5,0.6 0.6,1 0.1,0.4 0.2,0.9 0.2,1.3 m -1.6,0 c 0,-0.6 -0.1,-1.1 -0.4,-1.5 -0.3,-0.4 -0.7,-0.5 -1.1,-0.5 -0.3,0 -0.6,0.1 -0.8,0.2 -0.2,0.2 -0.4,0.4 -0.5,0.7 -0.1,0.3 -0.2,0.7 -0.2,1.1 0,0.4 0.1,0.8 0.2,1.1 0.1,0.3 0.3,0.5 0.5,0.7 0.2,0.2 0.5,0.3 0.8,0.3 0.5,0 0.9,-0.2 1.1,-0.5 0.2,-0.4 0.4,-0.9 0.4,-1.6"
   id="path64"
   inkscape:connector-curvature="0"
   style="fill:#7a7d86" />
	</g>
	<g
   id="g70">
		<path
   class="st0"
   d="m 149.2,72.3 v -0.2 c -0.2,0.2 -0.4,0.4 -0.6,0.6 -0.2,0.2 -0.4,0.3 -0.7,0.4 -0.2,0.1 -0.5,0.1 -0.8,0.1 -0.4,0 -0.7,-0.1 -1,-0.2 -0.3,-0.2 -0.5,-0.4 -0.7,-0.7 -0.2,-0.3 -0.3,-0.8 -0.3,-1.4 v -3.1 c 0,-0.3 0.1,-0.5 0.2,-0.7 0.1,-0.2 0.3,-0.2 0.6,-0.2 0.2,0 0.4,0.1 0.6,0.2 0.1,0.2 0.2,0.4 0.2,0.7 v 2.5 c 0,0.4 0,0.7 0.1,0.9 0.1,0.2 0.2,0.4 0.3,0.6 0.2,0.1 0.4,0.2 0.7,0.2 0.3,0 0.5,-0.1 0.7,-0.2 0.2,-0.1 0.4,-0.4 0.5,-0.6 0.1,-0.2 0.1,-0.7 0.1,-1.5 v -1.9 c 0,-0.3 0.1,-0.5 0.2,-0.7 0.1,-0.2 0.3,-0.2 0.6,-0.2 0.2,0 0.4,0.1 0.6,0.2 0.1,0.2 0.2,0.4 0.2,0.7 v 4.6 c 0,0.3 -0.1,0.5 -0.2,0.7 -0.1,0.2 -0.3,0.2 -0.5,0.2 -0.2,0 -0.4,-0.1 -0.5,-0.2 -0.3,-0.3 -0.3,-0.5 -0.3,-0.8"
   id="path68"
   inkscape:connector-curvature="0"
   style="fill:#7a7d86" />
	</g>
	<g
   id="g74">
		<path
   class="st0"
   d="m 153.8,71 v 1.3 c 0,0.3 -0.1,0.6 -0.2,0.7 -0.1,0.2 -0.3,0.2 -0.6,0.2 -0.2,0 -0.4,-0.1 -0.6,-0.2 -0.1,-0.2 -0.2,-0.4 -0.2,-0.7 v -4.4 c 0,-0.7 0.3,-1.1 0.8,-1.1 0.3,0 0.5,0.1 0.6,0.3 0.1,0.2 0.2,0.4 0.2,0.7 0.2,-0.3 0.4,-0.6 0.6,-0.7 0.2,-0.2 0.5,-0.3 0.8,-0.3 0.3,0 0.6,0.1 1,0.3 0.3,0.2 0.5,0.4 0.5,0.7 0,0.2 -0.1,0.3 -0.2,0.5 -0.1,0.1 -0.3,0.2 -0.4,0.2 -0.1,0 -0.2,0 -0.4,-0.1 -0.2,-0.1 -0.4,-0.1 -0.6,-0.1 -0.2,0 -0.4,0.1 -0.6,0.2 -0.1,0.1 -0.3,0.3 -0.3,0.5 -0.1,0.2 -0.1,0.5 -0.2,0.8 -0.2,0.3 -0.2,0.7 -0.2,1.2"
   id="path72"
   inkscape:connector-curvature="0"
   style="fill:#7a7d86" />
	</g>
	<g
   id="g78">
		<path
   class="st0"
   d="m 164.6,72.3 v -0.2 c -0.2,0.2 -0.4,0.4 -0.6,0.6 -0.2,0.2 -0.4,0.3 -0.7,0.3 -0.2,0.1 -0.5,0.1 -0.8,0.1 -0.4,0 -0.7,-0.1 -1,-0.2 -0.3,-0.2 -0.6,-0.4 -0.8,-0.7 -0.2,-0.3 -0.4,-0.6 -0.5,-1 -0.1,-0.4 -0.2,-0.8 -0.2,-1.3 0,-1 0.2,-1.7 0.7,-2.3 0.5,-0.5 1.1,-0.8 1.9,-0.8 0.4,0 0.8,0.1 1.1,0.2 0.3,0.2 0.6,0.4 0.9,0.7 v -2.3 c 0,-0.3 0.1,-0.6 0.2,-0.7 0.1,-0.2 0.3,-0.3 0.5,-0.3 0.2,0 0.4,0.1 0.5,0.2 0.1,0.2 0.2,0.4 0.2,0.7 v 6.9 c 0,0.3 -0.1,0.5 -0.2,0.7 -0.1,0.2 -0.3,0.2 -0.5,0.2 -0.2,0 -0.4,-0.1 -0.5,-0.2 -0.1,-0.1 -0.2,-0.3 -0.2,-0.6 M 161.5,70 c 0,0.4 0.1,0.8 0.2,1.1 0.1,0.3 0.3,0.5 0.5,0.7 0.2,0.2 0.5,0.2 0.8,0.2 0.3,0 0.5,-0.1 0.8,-0.2 0.2,-0.1 0.4,-0.4 0.5,-0.7 0.1,-0.3 0.2,-0.7 0.2,-1.1 0,-0.4 -0.1,-0.8 -0.2,-1.1 -0.1,-0.3 -0.3,-0.5 -0.6,-0.7 -0.2,-0.2 -0.5,-0.2 -0.8,-0.2 -0.3,0 -0.5,0.1 -0.8,0.2 -0.2,0.2 -0.4,0.4 -0.5,0.7 0,0.4 -0.1,0.7 -0.1,1.1"
   id="path76"
   inkscape:connector-curvature="0"
   style="fill:#7a7d86" />
	</g>
	<g
   id="g82">
		<path
   class="st0"
   d="m 171.6,72.3 c -0.4,0.3 -0.8,0.5 -1.1,0.7 -0.4,0.1 -0.7,0.2 -1.2,0.2 -0.4,0 -0.8,-0.1 -1.1,-0.2 -0.3,-0.2 -0.5,-0.4 -0.7,-0.6 -0.2,-0.3 -0.2,-0.6 -0.2,-0.9 0,-0.4 0.1,-0.8 0.4,-1.1 0.3,-0.3 0.6,-0.5 1.1,-0.6 0.1,0 0.4,-0.1 0.7,-0.2 0.4,-0.1 0.7,-0.2 1,-0.2 0.3,-0.1 0.6,-0.1 0.9,-0.2 0,-0.4 -0.1,-0.7 -0.2,-0.9 -0.1,-0.2 -0.5,-0.3 -0.9,-0.3 -0.4,0 -0.7,0.1 -0.9,0.2 -0.2,0.1 -0.4,0.3 -0.5,0.5 -0.1,0.2 -0.2,0.4 -0.3,0.4 -0.1,0.1 -0.2,0.1 -0.4,0.1 -0.2,0 -0.3,-0.1 -0.4,-0.2 -0.1,-0.1 -0.2,-0.3 -0.2,-0.4 0,-0.3 0.1,-0.5 0.3,-0.8 0.2,-0.3 0.5,-0.5 0.9,-0.6 0.4,-0.2 0.9,-0.3 1.5,-0.3 0.7,0 1.2,0.1 1.6,0.2 0.4,0.2 0.7,0.4 0.8,0.8 0.2,0.3 0.2,0.8 0.2,1.4 v 0.9 c 0,0.3 0,0.5 0,0.9 0,0.3 0,0.6 0.1,0.9 0.1,0.3 0.1,0.5 0.1,0.6 0,0.2 -0.1,0.3 -0.2,0.4 -0.2,0.1 -0.3,0.2 -0.5,0.2 -0.2,0 -0.3,-0.1 -0.5,-0.2 0.1,-0.1 -0.1,-0.4 -0.3,-0.7 m -0.1,-2.2 c -0.2,0.1 -0.6,0.2 -1,0.3 -0.4,0.1 -0.7,0.2 -0.9,0.2 -0.2,0 -0.3,0.1 -0.5,0.3 -0.2,0.1 -0.2,0.3 -0.2,0.5 0,0.2 0.1,0.4 0.3,0.6 0.2,0.2 0.4,0.3 0.7,0.3 0.3,0 0.6,-0.1 0.9,-0.2 0.3,-0.1 0.4,-0.3 0.6,-0.5 0.1,-0.2 0.2,-0.6 0.2,-1.2 v -0.3 z"
   id="path80"
   inkscape:connector-curvature="0"
   style="fill:#7a7d86" />
	</g>
	<g
   id="g86">
		<path
   class="st0"
   d="m 174.5,67 h 0.2 v -1 c 0,-0.3 0,-0.5 0,-0.6 0,-0.1 0.1,-0.3 0.1,-0.4 0.1,-0.1 0.1,-0.2 0.3,-0.3 0.1,-0.1 0.3,-0.1 0.4,-0.1 0.2,0 0.4,0.1 0.5,0.2 0.1,0.1 0.2,0.2 0.2,0.4 0,0.1 0,0.3 0,0.6 V 67 h 0.6 c 0.2,0 0.4,0.1 0.5,0.2 0.1,0.1 0.2,0.2 0.2,0.4 0,0.2 -0.1,0.4 -0.2,0.4 -0.2,0.1 -0.4,0.1 -0.7,0.1 h -0.3 V 71 c 0,0.2 0,0.4 0,0.6 0,0.1 0.1,0.2 0.1,0.3 0.1,0.1 0.2,0.1 0.4,0.1 0.1,0 0.2,0 0.4,0 0.2,0 0.3,-0.1 0.4,-0.1 0.1,0 0.2,0.1 0.3,0.2 0.1,0.1 0.2,0.2 0.2,0.4 0,0.2 -0.1,0.4 -0.4,0.6 -0.3,0.1 -0.7,0.2 -1.2,0.2 -0.5,0 -0.9,-0.1 -1.1,-0.2 -0.2,-0.2 -0.4,-0.4 -0.5,-0.7 -0.1,-0.3 -0.1,-0.7 -0.1,-1.2 v -3 h -0.2 c -0.2,0 -0.4,-0.1 -0.5,-0.2 -0.1,-0.1 -0.2,-0.2 -0.2,-0.4 0,-0.2 0.1,-0.3 0.2,-0.4 C 174,67 174.2,67 174.5,67"
   id="path84"
   inkscape:connector-curvature="0"
   style="fill:#7a7d86" />
	</g>
	<g
   id="g90">
		<path
   class="st0"
   d="m 182.5,72.3 c -0.4,0.3 -0.7,0.5 -1.1,0.7 -0.4,0.1 -0.8,0.2 -1.2,0.2 -0.4,0 -0.8,-0.1 -1.1,-0.2 -0.3,-0.2 -0.5,-0.4 -0.7,-0.6 -0.2,-0.3 -0.2,-0.6 -0.2,-0.9 0,-0.4 0.1,-0.8 0.4,-1.1 0.3,-0.3 0.7,-0.5 1.1,-0.6 0.1,0 0.3,-0.1 0.7,-0.2 0.4,-0.1 0.7,-0.2 1,-0.2 0.3,-0.1 0.6,-0.1 0.9,-0.2 0,-0.4 -0.1,-0.7 -0.3,-0.9 -0.2,-0.2 -0.4,-0.3 -0.9,-0.3 -0.4,0 -0.7,0.1 -0.9,0.2 -0.2,0.1 -0.4,0.3 -0.5,0.5 -0.1,0.2 -0.2,0.4 -0.3,0.4 -0.1,0.1 -0.2,0.1 -0.4,0.1 -0.2,0 -0.3,-0.1 -0.5,-0.2 -0.1,-0.1 -0.2,-0.3 -0.2,-0.4 0,-0.3 0.1,-0.5 0.3,-0.8 0.2,-0.3 0.5,-0.5 0.9,-0.6 0.4,-0.2 0.9,-0.3 1.5,-0.3 0.7,0 1.2,0.1 1.6,0.2 0.4,0.2 0.7,0.4 0.8,0.8 0.2,0.3 0.2,0.8 0.2,1.4 0,0.4 0,0.7 0,0.9 0,0.3 0,0.5 0,0.9 0,0.3 0.1,0.6 0.1,0.9 0.1,0.3 0.2,0.5 0.2,0.6 0,0.2 -0.1,0.3 -0.2,0.4 -0.1,0.1 -0.3,0.2 -0.5,0.2 -0.2,0 -0.3,-0.1 -0.5,-0.2 0.1,-0.1 0,-0.4 -0.2,-0.7 m -0.1,-2.2 c -0.2,0.1 -0.6,0.2 -1,0.3 -0.4,0.1 -0.7,0.2 -0.9,0.2 -0.2,0 -0.3,0.1 -0.5,0.3 -0.2,0.1 -0.2,0.3 -0.2,0.5 0,0.2 0.1,0.4 0.3,0.6 0.2,0.2 0.4,0.3 0.7,0.3 0.3,0 0.6,-0.1 0.9,-0.2 0.3,-0.1 0.5,-0.3 0.6,-0.5 0.1,-0.2 0.2,-0.6 0.2,-1.2 v -0.3 z"
   id="path88"
   inkscape:connector-curvature="0"
   style="fill:#7a7d86" />
	</g>
	<g
   id="g136">
		<g
   id="g134">
			<path
   class="st1"
   d="m 39.6,51.5 0.8,0.8 c 0,-0.2 0,-0.3 0,-0.5 z"
   id="path92"
   inkscape:connector-curvature="0"
   style="fill:none" />
			<path
   class="st1"
   d="m 30.6,55.3 v 0.1 c 0.3,0.3 0.6,0.6 0.9,0.9 l 4.1,-1.7 -0.2,-0.2 c -1.5,0.7 -3.1,0.9 -4.8,0.9 z"
   id="path94"
   inkscape:connector-curvature="0"
   style="fill:none" />
			<path
   class="st1"
   d="M 50.9,62.7 50.7,62 c -0.3,0 -0.6,0 -0.9,-0.1 l 1,1 c 0,-0.1 0.1,-0.1 0.1,-0.2 z"
   id="path96"
   inkscape:connector-curvature="0"
   style="fill:none" />
			<path
   class="st1"
   d="m 21.4,52 c 1,0 1.9,0.1 2.9,0.3 -1.5,-1.7 -2.4,-3.9 -2.4,-6.2 0,-5.1 4.2,-9.3 9.3,-9.3 4.7,0 8.5,3.6 9.1,8.2 l 1.7,0.2 c 2.1,-3.2 5.5,-5.1 9.3,-5.1 5.9,0 10.7,4.9 10.7,11 0,4.1 -2.2,7.8 -5.7,9.6 l 0.1,1.3 c 3.5,0.7 6.1,3.8 6.1,7.5 0,4.2 -3.4,7.6 -7.6,7.6 -4.2,0 -7.6,-3.4 -7.6,-7.6 0,-1.1 0.2,-2.1 0.6,-3 l -6.3,-6.1 -6.2,3.1 c 0.2,0.8 0.2,1.7 0.2,2.6 0,7.7 -6.3,14 -14,14 -7.7,0 -14,-6.3 -14,-14 C 7.4,58.3 13.7,52 21.4,52 Z"
   id="path98"
   inkscape:connector-curvature="0"
   style="fill:none" />
			<path
   class="st2"
   d="m 40.6,52.6 c 0,-0.3 -0.1,-0.6 -0.1,-0.8 l -1.5,-0.7 1.4,1.5 z m -1,-1.1 0.7,0.3 c 0,0.2 0,0.3 0,0.5 z"
   id="path100"
   inkscape:connector-curvature="0"
   style="fill:#7a7f86" />
			<path
   class="st2"
   d="m 31.2,55.1 c -0.2,0 -0.5,0 -0.7,0 l -0.1,0.3 c 0.4,0.3 0.7,0.6 1.1,1 l 4.4,-1.9 -0.4,-0.4 c -1.4,0.7 -2.8,1 -4.3,1 z m 0.2,1.1 c -0.3,-0.3 -0.6,-0.6 -0.9,-0.9 v -0.1 c 1.7,0 3.4,-0.2 4.8,-0.9 l 0.2,0.2 z"
   id="path102"
   inkscape:connector-curvature="0"
   style="fill:#7a7f86" />
			<path
   class="st2"
   d="m 21.4,80.1 c 7.7,0 14,-6.3 14,-14 0,-1 -0.1,-1.8 -0.2,-2.6 l 6.2,-3.1 6.3,6.1 c -0.4,0.9 -0.6,1.9 -0.6,3 0,4.2 3.4,7.6 7.6,7.6 4.2,0 7.6,-3.4 7.6,-7.6 0,-3.7 -2.6,-6.8 -6.1,-7.5 l -0.1,-1.3 c 3.5,-1.8 5.7,-5.5 5.7,-9.6 0,-6 -4.8,-10.9 -10.8,-10.9 -3.7,0 -7.2,1.9 -9.3,5.1 L 40,45.1 c -0.5,-4.6 -4.4,-8.2 -9.1,-8.2 -5.1,0 -9.3,4.2 -9.3,9.3 0,2.3 0.9,4.5 2.4,6.2 -1,-0.2 -1.9,-0.3 -2.9,-0.3 -7.7,0 -14,6.3 -14,14 0.3,7.7 6.6,14 14.3,14 z m 0,-27.9 c 1.1,0 2.1,0.1 3.3,0.4 v -0.1 c -1.7,-1.7 -2.6,-4 -2.6,-6.4 0,-5 4.1,-9.1 9.1,-9.1 4.6,0 8.5,3.6 8.9,8.2 l 2,0.2 c 2,-3.2 5.5,-5.1 9.2,-5.1 5.8,0 10.6,4.8 10.6,10.7 0,4.1 -2.2,7.7 -5.7,9.5 l 0.1,1.6 c 3.4,0.7 6,3.7 6,7.3 0,4.1 -3.4,7.5 -7.5,7.5 -4.1,0 -7.5,-3.4 -7.5,-7.5 0,-1.1 0.2,-2.1 0.6,-3.1 L 41.4,60 35,63.3 c 0.2,0.8 0.3,1.7 0.3,2.7 0,7.6 -6.2,13.9 -13.9,13.9 C 13.8,79.9 7.5,73.7 7.5,66 7.5,58.4 13.8,52.2 21.4,52.2 Z"
   id="path104"
   inkscape:connector-curvature="0"
   style="fill:#7a7f86" />
			<path
   class="st2"
   d="m 51.2,62.8 -0.3,-1 c -0.5,0 -1,-0.1 -1.5,-0.2 l 1.4,1.4 c 0.1,0 0.2,-0.1 0.4,-0.2 z M 50.7,62 51,62.8 c -0.1,0 -0.1,0.1 -0.2,0.1 l -1,-1 c 0.3,0 0.6,0.1 0.9,0.1 z"
   id="path106"
   inkscape:connector-curvature="0"
   style="fill:#7a7f86" />
			<path
   class="st3"
   d="m 50.6,65.6 c 0.7,-0.9 1.6,-1.5 2.8,-1.6 L 52.1,59.8 C 51.8,60 51.5,60 51.2,60 c -2.8,0 -5.3,-1.3 -7,-3.4 l -1.6,0.9 z m 0.2,-3.8 0.3,1 C 51,62.9 50.8,63 50.7,63.1 l -1.4,-1.4 c 0.5,0 1,0.1 1.5,0.1 z"
   id="path108"
   inkscape:connector-curvature="0"
   style="fill:#ffffff" />
			<path
   class="st3"
   d="m 39.9,54.8 2.7,-1 C 42.5,52.9 42.3,52 42.3,51.1 v -0.6 l -4.4,-1.8 c -0.3,0.9 -0.9,1.8 -1.5,2.4 z m 0.6,-3.1 c 0,0.3 0,0.6 0.1,0.8 L 40.4,52.6 39,51.1 Z"
   id="path110"
   inkscape:connector-curvature="0"
   style="fill:#ffffff" />
			<path
   class="st3"
   d="m 31.2,53.3 c -0.7,0 -1.5,0 -2.1,-0.1 l -0.9,3 c 1,0.7 1.9,1.6 2.7,2.5 l 8.2,-3.4 -3.4,-3.4 c -1.4,0.9 -2.9,1.4 -4.5,1.4 z m 0.2,3.1 c -0.3,-0.4 -0.7,-0.7 -1.1,-1 l 0.1,-0.3 c 0.3,0 0.5,0 0.7,0 1.5,0 2.9,-0.3 4.2,-1 l 0.4,0.4 z"
   id="path112"
   inkscape:connector-curvature="0"
   style="fill:#ffffff" />
			<path
   class="st3"
   d="m 21.4,79.9 c 7.6,0 13.9,-6.2 13.9,-13.9 0,-1 -0.1,-1.9 -0.3,-2.7 l 6.4,-3.2 6.5,6.3 c -0.4,0.9 -0.6,1.9 -0.6,3.1 0,4.1 3.4,7.5 7.5,7.5 4.1,0 7.5,-3.4 7.5,-7.5 0,-3.6 -2.6,-6.7 -6,-7.3 l -0.1,-1.6 c 3.5,-1.8 5.7,-5.4 5.7,-9.5 0,-5.9 -4.8,-10.7 -10.6,-10.7 -3.7,0 -7.1,1.9 -9.2,5.1 l -2,-0.2 c -0.5,-4.6 -4.3,-8.2 -8.9,-8.2 -5,0 -9.1,4.1 -9.1,9.1 0,2.4 1,4.7 2.6,6.4 v 0.1 c -1.1,-0.3 -2.2,-0.4 -3.3,-0.4 -7.6,0 -13.9,6.2 -13.9,13.9 0,7.5 6.3,13.7 13.9,13.7 z m 0,-25.9 c 1.5,0 2.8,0.3 4.2,0.7 L 27.1,52 C 25.2,50.7 24,48.4 24,46.1 c 0,-4 3.3,-7.3 7.3,-7.3 4,0 7.1,3.3 7.1,7.3 v 0.7 l 4.7,0.4 c 1.5,-3 4.5,-5.2 8.2,-5.2 4.9,0 8.8,4 8.8,8.9 0,3.9 -2.4,7.1 -5.8,8.3 l 0.3,4.4 h 0.3 c 3.1,0 5.6,2.5 5.6,5.6 0,3.1 -2.5,5.6 -5.6,5.6 -3.1,0 -5.6,-2.5 -5.6,-5.6 0,-1.3 0.3,-2.4 1,-3.4 l -8.5,-8.2 -8.9,4.5 c 0.4,1.2 0.6,2.4 0.6,3.7 0,6.7 -5.3,12 -12,12 -6.7,0 -12,-5.4 -12,-12 C 9.5,59.2 14.7,54 21.4,54 Z"
   id="path114"
   inkscape:connector-curvature="0"
   style="fill:#ffffff" />
			<path
   class="st4"
   d="m 44.7,54 v 0 l 1.1,1.3 c 1.3,1.7 3.3,2.7 5.5,2.6 0,0 0,0 0,0 l 2,-1 0.2,0.6 h 0.1 C 56.3,56.6 58,54 58,51.1 c 0,-3.8 -3,-6.9 -6.8,-6.9 -2.7,0 -5.1,1.6 -6.4,4.1 l -0.5,1.1 v 1.8 c 0,0.7 0.1,1.5 0.3,2.4 z"
   id="path116"
   inkscape:connector-curvature="0"
   style="fill:#ee7d21;stroke:#ee7d21;stroke-miterlimit:10" />
			<path
   class="st5"
   d="m 52.2,66.9 -0.6,0.7 c -0.3,0.5 -0.4,1.1 -0.4,1.9 0,2 1.6,3.6 3.6,3.6 2,0 3.6,-1.6 3.6,-3.6 0,-2 -1.6,-3.6 -3.6,-3.6 L 53.7,66 c -0.6,0 -1.1,0.3 -1.5,0.9 z"
   id="path118"
   inkscape:connector-curvature="0"
   style="fill:#ee7d21" />
			<path
   class="st5"
   d="m 28.2,50.5 0.9,0.6 0.5,0.1 c 0.4,0.1 1,0.1 1.6,0.1 1.3,0 2.3,-0.3 3.2,-1 L 35,49.7 c 0.4,-0.4 0.8,-1.1 1,-1.6 l 0.3,-1 v -0.9 c 0,-3 -2.3,-5.3 -5.1,-5.3 -2.9,0 -5.3,2.4 -5.3,5.3 0,1.7 0.9,3.3 2.3,4.3 z"
   id="path120"
   inkscape:connector-curvature="0"
   style="fill:#ee7d21" />
			<path
   class="st4"
   d="m 21.4,76.1 c 5.6,0 10,-4.4 10,-10 0,-1.2 -0.1,-2.1 -0.5,-3 l -0.6,-1.7 3.9,-1.9 -3.9,1.6 -0.9,-1.1 c -0.7,-0.9 -1.5,-1.6 -2.3,-2.2 l -1,-0.7 -1.2,-0.4 c -1.3,-0.4 -2.4,-0.6 -3.5,-0.6 -5.6,0 -10,4.4 -10,10 0,5.6 4.4,10 10,10 z"
   id="path122"
   inkscape:connector-curvature="0"
   style="fill:#ee7d21;stroke:#ee7d21;stroke-miterlimit:10" />
			<path
   class="st5"
   d="m 52,66.8 -0.6,0.7 c -0.3,0.6 -0.4,1.2 -0.4,1.9 0,2.1 1.7,3.8 3.8,3.8 2.1,0 3.8,-1.7 3.8,-3.8 0,-2.1 -1.7,-3.8 -3.8,-3.8 l -1.1,0.1 C 53,65.9 52.5,66.2 52,66.8 Z m 2.8,-1 c 2,0 3.6,1.6 3.6,3.6 0,2 -1.6,3.6 -3.6,3.6 -2,0 -3.6,-1.6 -3.6,-3.6 0,-0.8 0.1,-1.3 0.4,-1.9 l 0.6,-0.7 c 0.5,-0.6 0.9,-0.9 1.5,-0.9 z"
   id="path124"
   inkscape:connector-curvature="0"
   style="fill:#ee7d21" />
			<path
   class="st5"
   d="m 28.1,50.6 0.9,0.6 0.5,0.1 c 0.4,0.1 1,0.1 1.6,0.1 1.3,0 2.4,-0.3 3.3,-1.1 L 35,49.7 c 0.4,-0.5 0.9,-1.1 1,-1.7 l 0.3,-1 V 46.1 C 36.3,43 34,40.7 31,40.7 c -3,0 -5.4,2.4 -5.4,5.4 0.2,1.8 1,3.5 2.5,4.5 z m 3.1,-9.7 c 2.9,0 5.1,2.3 5.1,5.3 v 0.9 L 36,48 c -0.2,0.5 -0.6,1.2 -1,1.6 l -0.6,0.6 c -0.9,0.7 -1.9,1 -3.2,1 -0.6,0 -1.2,0 -1.6,-0.1 L 29.1,51 28.2,50.4 c -1.4,-1 -2.3,-2.6 -2.3,-4.3 0,-2.8 2.4,-5.2 5.3,-5.2 z"
   id="path126"
   inkscape:connector-curvature="0"
   style="fill:#ee7d21" />
			<path
   class="st5"
   d="m 21.4,76.3 c 5.6,0 10.2,-4.6 10.2,-10.2 0,-1.2 -0.1,-2.2 -0.5,-3.1 l -0.6,-1.5 8.2,-4.1 -8.4,3.5 -0.9,-1 C 28.7,59 27.9,58.3 27.1,57.7 L 26.1,57 25,56.5 c -1.4,-0.4 -2.5,-0.6 -3.6,-0.6 -5.7,0 -10.2,4.5 -10.2,10.2 0,5.7 4.5,10.2 10.2,10.2 z m 0,-20.3 c 1.1,0 2.2,0.2 3.5,0.6 l 1.2,0.4 1,0.7 c 0.8,0.6 1.6,1.3 2.3,2.2 l 0.9,1.1 3.9,-1.6 -3.9,1.9 0.6,1.7 c 0.3,0.9 0.5,1.8 0.5,3 0,5.6 -4.4,10 -10,10 -5.6,0 -10,-4.4 -10,-10 0,-5.6 4.4,-10 10,-10 z"
   id="path128"
   inkscape:connector-curvature="0"
   style="fill:#ee7d21" />
			<path
   class="st5"
   d="m 44.6,54.3 0.2,-0.1 1,1.2 c 1.4,1.8 3.4,2.7 5.6,2.7 0,0 0,0 0,0 l 1.8,-0.9 0.2,0.5 0.2,-0.1 c 2.7,-0.9 4.6,-3.6 4.6,-6.6 0,-3.9 -3.1,-7.1 -6.9,-7.1 -2.7,0 -5.2,1.6 -6.5,4.2 l -0.5,1.1 V 51 c 0,0.7 0.1,1.5 0.3,2.4 z m -0.3,-5 0.5,-1.1 c 1.3,-2.5 3.7,-4.1 6.4,-4.1 3.7,0 6.8,3.1 6.8,6.9 0,2.9 -1.8,5.5 -4.4,6.4 h -0.1 l -0.2,-0.4 -2,1 c 0,0 0,0 0,0 -2.1,0 -4.2,-0.9 -5.5,-2.6 l -1,-1.3 h -0.1 l -0.1,-0.6 c -0.1,-0.8 -0.3,-1.6 -0.3,-2.4 z"
   id="path130"
   inkscape:connector-curvature="0"
   style="fill:#ee7d21" />
			<path
   class="st4"
   d="m 21.4,78.1 c 6.7,0 12,-5.4 12,-12 0,-1.3 -0.2,-2.5 -0.6,-3.7 l 8.9,-4.5 8.5,8.2 c -0.7,1 -1,2.1 -1,3.4 0,3.1 2.5,5.6 5.6,5.6 3.1,0 5.6,-2.5 5.6,-5.6 0,-3.1 -2.5,-5.6 -5.6,-5.6 h -0.3 l -0.3,-4.4 c 3.4,-1.2 5.8,-4.4 5.8,-8.3 0,-4.9 -3.9,-8.9 -8.8,-8.9 -3.7,0 -6.7,2.2 -8.2,5.2 l -4.7,-0.4 v -0.7 c 0,-4 -3.1,-7.3 -7.1,-7.3 -4,0 -7.3,3.3 -7.3,7.3 0,2.4 1.2,4.6 3.1,5.9 L 25.5,55 c -1.3,-0.4 -2.7,-0.7 -4.2,-0.7 -6.7,0 -12,5.3 -12,12 0,6.7 5.4,11.8 12.1,11.8 z M 54.8,65.7 c 2.1,0 3.8,1.7 3.8,3.8 0,2.1 -1.7,3.8 -3.8,3.8 -2.1,0 -3.8,-1.7 -3.8,-3.8 0,-0.8 0.1,-1.4 0.4,-1.9 L 52,66.9 c 0.5,-0.6 1,-0.9 1.7,-1 z M 44.2,49.3 44.7,48.2 C 46,45.6 48.5,44 51.2,44 c 3.8,0 6.9,3.2 6.9,7.1 0,3 -1.8,5.6 -4.6,6.6 l -0.2,0.1 -0.2,-0.5 -1.8,0.9 c 0,0 0,0 0,0 -2.2,0 -4.3,-1 -5.6,-2.7 l -1,-1.2 -0.2,0.1 -0.1,-0.9 c -0.1,-0.8 -0.3,-1.6 -0.3,-2.4 v -1.8 z m 0.1,7.3 c 1.6,2.1 4.2,3.4 7,3.4 0.3,0 0.6,0 0.9,-0.2 l 1.3,4.2 c -1.2,0.2 -2.1,0.7 -2.8,1.6 l -8,-8.2 z m -2,-6.1 v 0.6 c 0,0.9 0.1,1.8 0.3,2.7 l -2.7,1 -3.6,-3.7 c 0.6,-0.6 1.2,-1.5 1.5,-2.4 z m -3.2,4.7 -8.2,3.4 c -0.7,-0.9 -1.6,-1.8 -2.7,-2.5 l 0.9,-3 c 0.6,0.1 1.3,0.1 2.1,0.1 1.6,0 3.1,-0.4 4.5,-1.5 z m -13.3,-9 c 0,-3 2.4,-5.4 5.4,-5.4 3,0 5.3,2.4 5.3,5.4 v 0.9 l -0.3,1 c -0.2,0.6 -0.6,1.2 -1,1.7 l -0.6,0.6 c -1,0.7 -2,1.1 -3.3,1.1 -0.6,0 -1.3,0 -1.6,-0.1 L 29,51.2 28.1,50.6 c -1.5,-1 -2.3,-2.7 -2.3,-4.4 z m -4.4,9.7 c 1.1,0 2.2,0.2 3.6,0.6 l 1.2,0.4 1,0.7 c 0.8,0.6 1.6,1.3 2.3,2.2 l 0.9,1 8.4,-3.5 -8.2,4.1 0.6,1.5 c 0.3,0.9 0.5,1.8 0.5,3.1 0,5.6 -4.6,10.2 -10.2,10.2 C 15.8,76.2 11.3,71.7 11.3,66 11.2,60.3 15.7,55.9 21.4,55.9 Z"
   id="path132"
   inkscape:connector-curvature="0"
   style="fill:#ee7d21;stroke:#ee7d21;stroke-miterlimit:10" />
		</g>
	</g>
</g>

</svg>