<?xml version="1.0" encoding="utf-8"?>
<!-- Generator: Adobe Illustrator 23.0.2, SVG Export Plug-In . SVG Version: 6.00 Build 0)  -->
<svg version="1.1"
	 id="svg6640" xmlns:cc="http://creativecommons.org/ns#" xmlns:dc="http://purl.org/dc/elements/1.1/" xmlns:rdf="http://www.w3.org/1999/02/22-rdf-syntax-ns#" xmlns:svg="http://www.w3.org/2000/svg"
	 xmlns="http://www.w3.org/2000/svg" xmlns:xlink="http://www.w3.org/1999/xlink" x="0px" y="0px" viewBox="0 0 715.7 375.9"
	 style="enable-background:new 0 0 715.7 375.9;" xml:space="preserve">
<style type="text/css">
	.st0{fill:#0B3E95;}
	.st1{clip-path:url(#SVGID_2_);}
</style>
<g id="layer1" transform="translate(-17.917763,-365.88176)">
	<g id="g6709" transform="matrix(5.7074399,0,0,5.7074399,-1108.1426,-2533.4918)">
		<g id="g5177" transform="matrix(1.25,0,0,-1.25,292.87625,519.94232)">
			<path id="path5179" class="st0" d="M0,0c0.2-0.9,0.3-1.8,0.2-2.7L-8.2-5c0,0.4-0.1,0.9-0.1,1.3L0,0z M-3.1,5.1
				c0.8-0.7,1.4-1.4,1.9-2.2l-8.3-3.8c-0.3,0.4-0.6,0.8-1,1.1C-10.5,0.2-3.1,5.1-3.1,5.1z M-9.1,8.1C-8,7.8-7,7.4-6,7l-7.4-4.9
				c-0.4,0.2-0.9,0.4-1.4,0.5C-14.9,2.6-9.1,8.1-9.1,8.1z M-17.9,9.1c1.5,0,3,0,4.4-0.1l-5.7-5.5c-0.7,0.1-1.4,0.1-2.1,0.1
				L-17.9,9.1z M-28.5,7.6c1.8,0.4,3.5,0.7,5.2,1L-26.8,3c-0.9-0.1-1.7-0.3-2.6-0.5C-29.4,2.6-28.5,7.6-28.5,7.6z M-39.5,4
				c1.7,0.7,3.4,1.3,5.1,1.9l-0.9-5C-36.1,0.6-37,0.3-37.8,0C-37.8,0-39.5,4-39.5,4z M-50-1.3c1.5,0.9,3.1,1.8,4.8,2.7l1.7-4
				C-44.4-3.1-45.2-3.5-46-4C-46-4-50-1.3-50-1.3z M-26.7-26c0.8,0.4,1.6,0.8,2.3,1.3l4-2.6c-1.5-0.9-3.1-1.7-4.7-2.5L-26.7-26z
				 M-35.1-29.6c0.9,0.3,1.7,0.6,2.6,0.9l1.6-3.8c-1.7-0.7-3.3-1.3-5-1.8L-35.1-29.6L-35.1-29.6z M-43.3-31.6
				c0.7,0.1,1.5,0.3,2.3,0.4l-0.8-4.6c-1.5-0.3-3.1-0.6-4.6-0.8L-43.3-31.6z M-50.8-32c0.7,0,1.4-0.1,2.1-0.1l-3.1-5
				c-1.4,0-2.8,0-4.1,0.1L-50.8-32L-50.8-32z M-56.9-30.6c0.5-0.2,1.1-0.5,1.8-0.6l-5.1-4.9c-1.2,0.3-2.3,0.7-3.2,1.2L-56.9-30.6
				L-56.9-30.6z M-60.7-27.7c0.2-0.3,0.5-0.7,0.8-1l-6.6-4.4c-0.7,0.6-1.2,1.2-1.7,1.9L-60.7-27.7L-60.7-27.7z M-62-23.3
				c0-0.5,0-1,0.1-1.5l-7.5-3.4c-0.2,0.9-0.3,1.8-0.3,2.8L-62-23.3L-62-23.3z"/>
		</g>
		<g id="g5181" transform="matrix(1.25,0,0,-1.25,208.2015,546.48357)">
			<path id="path5183" class="st0" d="M0,0h5.8v14.4H0V9.5h-2.5v4.9h-5.8V0h5.8v5.3l2.5,0V0z"/>
		</g>
		<g id="g5185" transform="matrix(1.25,0,0,-1.25,228.62638,546.48357)">
			<path id="path5187" class="st0" d="M0,0h5.8v10.2h3.9v4.2H-3.9v-4.2H0V0z"/>
		</g>
		<g id="g5189" transform="matrix(1.25,0,0,-1.25,251.3215,546.48357)">
			<path id="path5191" class="st0" d="M0,0h6.3l1.4,9.3h0L9,0h6.3l3.1,14.4h-5.2L12,5.4h0l-1.4,9.1h-6L3.3,5.4h0L2,14.4h-5.2L0,0z"
				/>
		</g>
		<g id="g5193" transform="matrix(1.25,0,0,-1.25,282.51525,546.48357)">
			<path id="path5195" class="st0" d="M0,0h5.6v6.5h0L9,0h6.3l-4.4,7.6l3.9,6.8H8.7l-3-6.2h0v6.2H0V0z"/>
		</g>
		<g id="g5197" transform="matrix(1.25,0,0,-1.25,-389.39275,1216.7268)">
			<g>
				<defs>
					<rect id="SVGID_1_" x="-1825.8" y="-1825.8" width="4246.9" height="4246.9"/>
				</defs>
				<clipPath id="SVGID_2_">
					<use xlink:href="#SVGID_1_"  style="overflow:visible;"/>
				</clipPath>
				<g id="g5199" class="st1">
					<g id="g5205" transform="translate(534.2527,519.2351)">
						<path id="path5207" class="st0" d="M0,0c0.2,0,0.3,0,0.3-0.1c0,0,0,0,0-0.2L0-1.4c-0.1-0.2-0.1-0.2-0.3-0.2h-4.4
							C-5-1.7-5-1.6-5-1.4v8.6c0,0.3,0,0.3,0.3,0.3h1.3c0.2,0,0.3,0,0.3-0.3V0H0z"/>
					</g>
					<g id="g5209" transform="translate(536.795,520.4193)">
						<path id="path5211" class="st0" d="M0,0c0-1.1,0.5-1.7,1.5-1.7c0.5,0,1,0.1,1.5,0.4c0.1,0,0.1,0.1,0.2,0.1
							c0.1,0,0.1,0,0.1-0.1l0.3-0.8c0-0.1,0-0.1,0-0.1c0-0.1-0.1-0.2-0.5-0.4C2.6-2.9,2-3.1,1.3-3.1c-0.9,0-1.5,0.2-2,0.7
							c-0.6,0.6-1,1.6-1,2.8C-1.7,2.5-0.5,4,1.2,4s2.6-1.2,2.6-3.6C3.9,0.1,3.8,0,3.6,0H0z M2.1,1.2c0,1.1-0.3,1.5-1,1.5
							c-0.7,0-1-0.4-1.1-1.5H2.1z"/>
					</g>
					<g id="g5213" transform="translate(541.7203,522.9224)">
						<path id="path5215" class="st0" d="M0,0c-0.2,0-0.2,0-0.2,0.2V1c0,0.2,0,0.2,0.2,0.2h2.5c0.2,0,0.2,0,0.2-0.2v-6.1
							c0-0.2,0-0.2-0.2-0.2H1.2C1-5.3,1-5.3,1-5.1L1,0H0z M2.9,3.2c0-0.6-0.5-1.1-1.1-1.1S0.7,2.6,0.7,3.2c0,0.6,0.5,1.1,1.1,1.1
							C2.4,4.3,2.9,3.8,2.9,3.2"/>
					</g>
					<g id="g5217" transform="translate(547.5363,524.3467)">
						<path id="path5219" class="st0" d="M0,0c0.1,0,0.1,0,0.1,0c0.1,0,0.3-0.3,0.4-0.7C1-0.2,1.5,0,2.2,0c1.5,0,2.3-1.2,2.3-3.4
							C4.5-5.8,3.7-7,2-7C1.5-7,1.2-6.9,0.7-6.6v-2.4c0-0.2,0-0.2-0.2-0.2l-1.2-0.3l-0.1,0C-1-9.6-1-9.5-1-9.4V-2
							c0,0.5-0.1,0.8-0.3,1.3c0,0,0,0.1,0,0.1c0,0.1,0,0.1,0.1,0.1L0,0z M0.7-5.5C1-5.6,1.3-5.7,1.6-5.7c0.9,0,1.2,0.6,1.2,2.3
							c0,1.5-0.3,2.1-1.1,2.1c-0.4,0-0.7-0.1-1-0.5C0.7-1.8,0.7-5.5,0.7-5.5z"/>
					</g>
					<g id="g5221" transform="translate(556.029,522.8284)">
						<path id="path5223" class="st0" d="M0,0h-2.6c-0.2,0-0.2,0-0.2,0.2v0.9c0,0.2,0,0.2,0.2,0.2h4.2c0.2,0,0.2,0,0.2-0.2v-1l-3-4
							h3c0.1,0,0.2,0,0.2-0.1c0,0,0-0.1,0-0.1L1.6-5.1C1.6-5.2,1.5-5.2,1.4-5.2h-4.3c-0.2,0-0.2,0-0.2,0.2v0.9L0,0z"/>
					</g>
					<g id="g5225" transform="translate(559.1699,522.9224)">
						<path id="path5227" class="st0" d="M0,0c-0.2,0-0.2,0-0.2,0.2V1c0,0.2,0,0.2,0.2,0.2h2.5c0.2,0,0.2,0,0.2-0.2v-6.1
							c0-0.2,0-0.2-0.2-0.2H1.2C1-5.3,1-5.3,1-5.1L1,0H0z M2.9,3.2c0-0.6-0.5-1.1-1.1-1.1c-0.6,0-1.1,0.5-1.1,1.1
							c0,0.6,0.5,1.1,1.1,1.1C2.4,4.3,2.9,3.8,2.9,3.2"/>
					</g>
					<g id="g5229" transform="translate(563.975,516.5866)">
						<path id="path5231" class="st0" d="M0,0c0,0.1,0.1,0.1,0.1,0.1c0,0,0.1,0,0.1,0c0.7-0.3,1.4-0.5,2-0.5c0.7,0,1,0.3,1,1.1
							c0,0.2,0,0.5-0.1,0.9c-0.5-0.3-1-0.5-1.5-0.5c-1.3,0-2.2,1.2-2.2,3.2c0,2.1,0.9,3.5,2.4,3.5c0.6,0,1-0.2,1.5-0.6
							c0.2,0.4,0.4,0.7,0.5,0.7c0,0,0.1,0,0.1,0l1.1-0.4c0.1,0,0.1-0.1,0.1-0.1c0,0,0,0-0.1-0.2C4.9,6.6,4.8,6.2,4.8,5.6v-2
							c0-0.7,0-1.5,0-2.2c0-0.4,0-0.7,0-0.8c0-1.5-0.9-2.4-2.5-2.4c-1.1,0-2.7,0.4-2.7,0.7c0,0,0,0.1,0,0.1L0,0z M3.2,6
							C2.8,6.3,2.6,6.4,2.2,6.4c-0.7,0-1.1-0.7-1.1-2c0-1.3,0.3-2,1-2c0.4,0,0.8,0.1,1.1,0.5C3.2,2.9,3.2,6,3.2,6z"/>
					</g>
				</g>
			</g>
		</g>
	</g>
</g>
</svg>
